<?xml version="1.0" encoding="utf-8" standalone="no"?>
<svg width="100%" height="100%" preserveAspectRatio="xMidYMid" xmlns="http://www.w3.org/2000/svg" xmlns:xlink="http://www.w3.org/1999/xlink" xmlns:xml="http://www.w3.org/XML/1998/namespace" version="1.1">
  <title id="title4138">Vorlage</title>
  <defs id="defs4">
    <clipPath clipPathUnits="userSpaceOnUse" id="clipPath7866">
      <path d="M54 769.8 L540.96 769.8 L540.96 92.39996 L53.99997 92.39996 L53.99997 769.8 z" clip-rule="evenOdd" id="path7868" connector-curvature="0" />
    </clipPath>
    <clipPath clipPathUnits="userSpaceOnUse" id="clipPath7856">
      <path d="M54 769.8 L54 769.8 L540.96 769.8 L540.96 92.39996 L53.99997 92.39996 L53.99997 769.8 z" clip-rule="evenOdd" id="path7858" connector-curvature="0" />
    </clipPath>
    <clipPath clipPathUnits="userSpaceOnUse" id="clipPath7816">
      <path d="M54 769.8 L540.96 769.8 L540.96 92.39996 L53.99997 92.39996 L53.99997 769.8 z" clip-rule="evenOdd" id="path7818" connector-curvature="0" />
    </clipPath>
    <clipPath clipPathUnits="userSpaceOnUse" id="clipPath7826">
      <path d="M540.96 769.8 L540.96 92.39996 L54.00003 92.39996 L54.00003 769.8 L540.96 769.8 z" clip-rule="evenOdd" id="path7828" connector-curvature="0" />
    </clipPath>
  </defs>
  <namedview id="base" pagecolor="#ffffff" bordercolor="#666666" borderopacity="1.0" pageopacity="0.0" pageshadow="2" zoom="1.4142136" cx="610.40993" cy="699.83189" document-units="px" current-layer="layer1" showgrid="true" objecttolerance="10" gridtolerance="10" window-width="1920" window-height="1017" window-x="-8" window-y="-8" window-maximized="1" snap-smooth-nodes="true" object-nodes="true" snap-others="true" snap-bbox="false">
    <grid id="grid4136" type="axonomgrid" units="px" empspacing="5" spacingy="20.000001" />
  </namedview>
  <metadata id="metadata7"></metadata>
  <g transform="matrix(1, 0, 0, 1, 22.30392, -512.3622)" id="bends_45_solid_011" stroke="#000000" style="fill:#000000;">
    <g id="g4714">
      <g id="g4707">
        <path d="M-5.621147 200.6705 L-24.18908 236.0997" transform="matrix(0.04085803, -0.999165, 0.999165, 0.04085803, -165.6322, 558.5468)" id="referenceline-7-8-2-6-3-1-5" stroke="#C0C0C0" stroke-width="0.5" stroke-linejoin="round" stroke-miterlimit="10" stroke-dasharray="3 1" label="referenceline" connector-curvature="0" nodetypes="cc" iclhelpline="true" style="fill:none;" />
        <path d="M43.62943 181.3215 L23.64613 182.1387" transform="matrix(0.04085803, -0.999165, 0.999165, 0.04085803, -165.6322, 558.5468)" id="referenceline-7-4-7-9-5-4-2-6" stroke="#C0C0C0" stroke-width="0.5" stroke-linejoin="round" stroke-miterlimit="10" stroke-dasharray="3 1" label="referenceline" connector-curvature="0" nodetypes="cc" iclhelpline="true" style="fill:none;" />
        <path d="M-53.45635 254.6315 L-73.43964 255.4487" transform="matrix(0.04085803, -0.999165, 0.999165, 0.04085803, -165.6322, 558.5468)" id="referenceline-7-4-3-0-3-7-6-3-3" stroke="#C0C0C0" stroke-width="0.5" stroke-linejoin="round" stroke-miterlimit="10" stroke-dasharray="3 1" label="referenceline" connector-curvature="0" nodetypes="cc" iclhelpline="true" style="fill:none;" />
        <path d="M-53.45635 254.6315 C-33.48146 253.6296 -33.47305 253.8144 -24.18908 236.0997" transform="matrix(0.04085803, -0.999165, 0.999165, 0.04085803, -165.6322, 558.5468)" id="path5018-2-4-1-8-3-9" fill-rule="evenOdd" stroke-width="2" connector-curvature="0" nodetypes="cc" style="fill:none;" />
        <path d="M-5.621147 200.6705 C3.662821 182.9559 3.662825 182.9559 23.64612 182.1387" transform="matrix(0.04085803, -0.999165, 0.999165, 0.04085803, -165.6322, 558.5468)" id="path5018-3-0-2-3-1-1-4" fill-rule="evenOdd" stroke-width="2" connector-curvature="0" nodetypes="cc" style="fill:none;" />
      </g>
      <g id="g4701" iclperspectiveline="true">
        <path d="M-468.4464 -403.4622 L-506.0386 -344.0929" transform="matrix(0.04085802, -0.9991649, -0.9991649, -0.04085802, -314.7035, 147.8223)" id="path5061-1-8-8-8-7-9" fill-rule="evenOdd" stroke-width="1px" opacity="0.6" connector-curvature="0" nodetypes="cc" style="fill:none;" />
        <path d="M75.7515 575.9839 L153.7542 621.9858" transform="matrix(-0.507988, -0.8613641, 0.8613641, -0.507988, -440.3305, 1030.762)" id="path5061-1-8-3-4-5-1-2" fill-rule="evenOdd" stroke-width="1px" opacity="0.6" nodetypes="cc" connector-curvature="0" style="fill:none;" />
        <path d="M94.05682 596.0359 L84.60949 590.5504" transform="matrix(-0.507988, -0.8613641, 0.8613641, -0.507988, -440.3305, 1030.762)" id="path5282-3-8-6-4" fill-rule="evenOdd" opacity="0.6" connector-curvature="0" nodetypes="cc" style="fill:none;" />
        <path d="M94.05682 596.0359 L94.29234 586.8323" transform="matrix(-0.507988, -0.8613641, 0.8613641, -0.507988, -440.3305, 1030.762)" id="path5284-5-0-3-2" fill-rule="evenOdd" opacity="0.6" connector-curvature="0" nodetypes="cc" style="fill:none;" />
      </g>
    </g>
    <rect y="512.3622" width="103.923" height="160" id="rect6208" stroke-opacity="0" opacity="0.3" style="fill:none;" />
  </g>
</svg>