<svg x="0" y="0" width="100%" height="100%" overflow="inherit" preserveAspectRatio="xMidYMid" font-size="0" xml:space="default" xmlns="http://www.w3.org/2000/svg" xmlns:xlink="http://www.w3.org/1999/xlink" xmlns:xml="http://www.w3.org/XML/1998/namespace" version="1.1">
  <g>
  <g transform="matrix(-0.5000067, -0.8660215, -0.8660215, 0.5000067, 811.0428, 149.5439)" id="g4450-2" xml:space="default">
    <path d="M385.7648 593.7897 L403.0854 603.7896" stroke="#000000" fill-rule="evenOdd" stroke-dasharray="4 4" opacity="0.5" id="path4226-2-1-3-4-1-4-0" xml:space="default" nodetypes="cc" connector-curvature="0" iclhelpline="true" style="fill:none;" />
    <path d="M420.4059 613.7895 L437.7265 623.7894" stroke="#000000" fill-rule="evenOdd" stroke-dasharray="4 4" opacity="0.5" id="path4226-7-0-6-1-8-9-4-7" xml:space="default" connector-curvature="0" iclhelpline="true" nodetypes="cc" style="fill:none;" />
    <path d="M410.265 619.2993 L402.7122 623.5333 L385.4809 613.4174 L393.1853 609.0875 M411.7147 598.674 L420.4058 593.7896 L437.4938 603.9 L428.8649 608.7802" stroke="#000000" fill-rule="evenOdd" stroke-width="1.545276" id="path4639-1-3-5-7-1-6-16-6" xml:space="default" transform-center-y="-24.900966" transform-center-x="-8.8759517" nodetypes="cccccccc" connector-curvature="0" style="fill:none;" />
    <path d="M394.2523 613.9059 L420.2242 599.2174" stroke="#000000" fill-rule="evenOdd" stroke-width="2" stroke-linecap="square" id="path4459-88-1-6-6-6-9-2-3" xml:space="default" transform-center-y="-22.269612" transform-center-x="-4.9352825" nodetypes="cc" connector-curvature="0" style="fill:none;" />
    <path d="M402.8602 618.7014 L428.1978 604.3716" stroke="#000000" fill-rule="evenOdd" stroke-width="2" stroke-linecap="square" id="path4459-88-1-4-1-5-02-3-98-7" xml:space="default" transform-center-y="-26.962154" transform-center-x="-13.389094" nodetypes="cc" connector-curvature="0" style="fill:none;" />
    <path d="M394.6416 618.8155 L441.6787 591.9296" stroke="#000000" fill-rule="evenOdd" stroke-width="1.5" id="path6305-1-5-6" xml:space="default" transform-center-y="-32.322827" transform-center-x="-9.3665118" connector-curvature="0" nodetypes="cc" style="fill:none;" />
    <path d="M-371.3639 780.1979 A8.919685 8.602369 0 0 1 -378.818 789.998 A8.919685 8.602369 0 0 1 -388.9936 782.8274 A8.919685 8.602369 0 0 1 -381.5776 773.0004 A8.919685 8.602369 0 0 1 -371.3742 780.134" stroke="#000000" stroke-width="1.549733" transform="matrix(0.6968694, -0.7171981, 0.9156277, 0.4020273, 0, 0)" id="path4165-4-8" xml:space="default" transform-center-y="-68.698842" transform-center-x="0.054271861" type="arc" cx="-380.1813" cy="781.4967" rx="8.9196854" ry="8.6023693" start="6.1316209" end="6.124116" open="true" style="fill:none;" />
    <rect x="707.1197" y="-117.1817" width="51.96152" height="99.25001" stroke="#000000" stroke-width="1.5" stroke-opacity="0" 
          transform="matrix(0.5000067, 0.8660215, -0.8660215, 0.5000067, 0, 0)" id="rect4420-3" xml:space="default" style="fill:none" />
  </g>
  </g>
</svg>