<?xml version="1.0" encoding="utf-8" standalone="no"?>
<svg x="0" y="0" width="100%" height="100%" overflow="inherit" preserveAspectRatio="xMidYMid" font-size="0" xml:space="default" xml="http://www.w3.org/XML/1998/namespace" xmlns="http://www.w3.org/2000/svg" xmlns:xlink="http://www.w3.org/1999/xlink" xmlns:xml="http://www.w3.org/XML/1998/namespace" version="1.1">
  <g transform="translate(-38.74929, -952.3622) translate(213.1211, 170)" id="layer1" xml:space="default" label="Ebene 1" groupmode="layer">
    <g transform="translate(-416.1464, 424.3094)" id="g3492" xml:space="default">
      <g transform="matrix(1.25, 0, 0, -1.25, 55.82182, 1362.153)" id="g3320" xml:space="default">
        <path d="M361.56 641.28 L332.4 625.92" id="path3322" xml:space="default" stroke="#C0C0C0" stroke-linejoin="round" stroke-miterlimit="10" stroke-dasharray="2 0.75 " connector-curvature="0" style="fill:none;" />
      </g>
      <g transform="matrix(1.25, 0, 0, -1.52468, 55.82182, 1536.487)" id="g3324" xml:space="default">
        <path d="M319.8 660.12 L319.8 634.68" id="path3326" xml:space="default" stroke="#C0C0C0" stroke-linejoin="round" stroke-miterlimit="10" stroke-dasharray="2 0.75 " connector-curvature="0" style="fill:none;" />
      </g>
      <path d="M473.2718 578.8655 C471.3843 580.028 469.1593 580.653 466.8718 580.653 C460.6343 580.653 455.5718 576.0905 455.5718 570.478 C455.5718 569.9155 455.6218 569.353 455.7218 568.803" id="path3328" xml:space="default" stroke="#000000" stroke-width="1.875" stroke-linejoin="round" stroke-miterlimit="10" connector-curvature="0" style="fill:none;" />
    </g>
    <rect x="38.74929" y="952.3622" width="77.49858" height="60" id="rect4157" xml:space="default" fill-opacity="0" stroke-miterlimit="10" stroke-dasharray="8 3 " style="fill:#000000;" />
  </g>
  <g transform="translate(-19.37465, -942.3622) translate(368.1183, 170)" id="layer1#1" xml:space="default" label="Ebene 1" groupmode="layer">
    <g transform="translate(-108.0075, 498.5555)" id="g3443" xml:space="default">
      <path d="M165.6509 463.899 C161.5647 465.6616 158.9597 469.424 158.9597 473.5616 C158.9597 476.8866 160.6572 480.024 163.5522 482.049" id="path3242" xml:space="default" stroke="#000000" stroke-width="1.875" stroke-linejoin="round" stroke-miterlimit="10" connector-curvature="0" style="fill:none;" />
      <g transform="matrix(1.25, 0, 0, -1.25, 62.8097, 1350.849)" id="g3244" xml:space="default">
        <path d="M110.76 679.08 L81.6 694.32" id="path3246" xml:space="default" stroke="#C0C0C0" stroke-linejoin="round" stroke-miterlimit="10" stroke-dasharray="2 0.75 " connector-curvature="0" style="fill:none;" />
      </g>
      <g transform="matrix(1.25, 0, 0, -1.25, 62.8097, 1350.849)" id="g3278" xml:space="default">
        <path d="M110.76 724.08 L81.6 708.84" id="path3280" xml:space="default" stroke="#C0C0C0" stroke-linejoin="round" stroke-miterlimit="10" stroke-dasharray="2 0.75 " connector-curvature="0" style="fill:none;" />
      </g>
    </g>
    <rect x="19.37465" y="942.3622" width="77.49858" height="60" id="rect4157#1" xml:space="default" fill-opacity="0" stroke-miterlimit="10" stroke-dasharray="8 3 " style="fill:#000000;" />
  </g>
  <g transform="translate(-77.49858, -952.3622) translate(445.6169, 270)" id="layer1#2" xml:space="default" label="Ebene 1" groupmode="layer">
    <g transform="translate(-502.6457, 431.1414)" id="g3485" xml:space="default">
      <g transform="matrix(1.25, 0, 0, -1.25, 65.68706, 1355.987)" id="g3330" xml:space="default">
        <path d="M442.8 665.28 L442.8 639.72" id="path3332" xml:space="default" stroke="#C0C0C0" stroke-linejoin="round" stroke-miterlimit="10" stroke-dasharray="2 0.75 " connector-curvature="0" style="fill:none;" />
      </g>
      <g transform="matrix(1.11251, 0, 0, -1.124063, 125.9541, 1276.091)" id="g3334" xml:space="default">
        <path d="M438.12 633.96 L408.96 618.72" id="path3336" xml:space="default" stroke="#C0C0C0" stroke-linejoin="round" stroke-miterlimit="10" stroke-dasharray="2 0.75 " connector-curvature="0" style="fill:none;" />
      </g>
      <path d="M619.162 552.5872 C619.1746 552.8497 619.1871 553.0997 619.1871 553.3622 C619.1871 559.3372 614.8371 564.5872 608.537 566.2372" id="path3338" xml:space="default" stroke="#000000" stroke-width="1.875" stroke-linejoin="round" stroke-miterlimit="10" connector-curvature="0" style="fill:none;" />
    </g>
    <rect x="77.49858" y="952.3622" width="58.12394" height="70" id="rect4157#2" xml:space="default" fill-opacity="0" stroke-miterlimit="10" stroke-dasharray="8 3 " style="fill:#000000;" />
  </g>
  <g transform="translate(-38.79524, -932.7705) translate(193.7465, 240)" id="layer1#3" xml:space="default" label="Ebene 1" groupmode="layer">
    <g transform="matrix(0.9892402, 0, 0, 1.000075, -599.6239, 424.9993)" id="g3580" xml:space="default">
      <g transform="matrix(1.25, 0, 0, -1.25, 576.8061, 1352.351)" id="g3549" xml:space="default">
        <path d="M70.56 665.28 L70.56 639.72" id="path3551" xml:space="default" stroke="#C0C0C0" stroke-linejoin="round" stroke-miterlimit="10" stroke-dasharray="2 0.75 " connector-curvature="0" style="fill:none;" />
      </g>
      <g transform="matrix(1.25, 0, 0, -1.25, 573.1729, 1354.822)" id="g3553" xml:space="default">
        <path d="M78.12861 635.9709 L105.2355 621.941" id="path3555" xml:space="default" stroke="#C0C0C0" stroke-width="0.9231861" stroke-linejoin="round" stroke-miterlimit="10" stroke-dasharray="1.846372 0.6923895 " connector-curvature="0" style="fill:none;" />
      </g>
      <path d="M665.1398 547.1513 C665.051 547.7388 665.0061 548.3263 665.0061 548.9263 C665.0061 554.8513 669.3986 560.0638 675.7698 561.7014" id="path3557" xml:space="default" stroke="#000000" stroke-width="1.875" stroke-linejoin="round" stroke-miterlimit="10" connector-curvature="0" style="fill:none;" />
    </g>
    <rect x="38.79524" y="932.7705" width="58.07799" height="69.73701" id="rect4157#3" xml:space="default" fill-opacity="0" stroke-miterlimit="10" stroke-dasharray="8 3 " style="fill:#000000;" />
  </g>
  <g transform="translate(-38.74929, -952.3622) translate(426.2422, 220)" id="layer1#4" xml:space="default" label="Ebene 1" groupmode="layer">
    <g transform="translate(-212.3277, 500.675)" id="g3457" xml:space="default">
      <path d="M289.8392 473.0048 C293.8371 474.7375 296.3802 478.4365 296.3802 482.5041 C296.3802 485.7729 294.7174 488.8574 291.8932 490.8482" id="path3248" xml:space="default" stroke="#000000" stroke-width="1.838624" stroke-linejoin="round" stroke-miterlimit="10" connector-curvature="0" style="fill:none;" />
      <g transform="matrix(1.222622, 0, 0, -1.228885, 57.82216, 1345.857)" id="g3250" xml:space="default">
        <path d="M188.04 711.72 L158.88 727.08" id="path3252" xml:space="default" stroke="#C0C0C0" stroke-linejoin="round" stroke-miterlimit="10" stroke-dasharray="2 0.75 " connector-curvature="0" style="fill:none;" />
      </g>
      <g transform="matrix(1.222622, 0, 0, -1.228885, 57.82216, 1345.857)" id="g3254" xml:space="default">
        <path d="M189.6 695.04 L160.44 679.8" id="path3256" xml:space="default" stroke="#C0C0C0" stroke-linejoin="round" stroke-miterlimit="10" stroke-dasharray="2 0.75 " connector-curvature="0" style="fill:none;" />
      </g>
    </g>
    <rect x="38.74929" y="952.3622" width="58.16988" height="60" id="rect4157#4" xml:space="default" fill-opacity="0" stroke-miterlimit="10" stroke-dasharray="8 3 " style="fill:#000000;" />
  </g>
  <g transform="translate(-38.74929, -952.3622) translate(271.245, 300)" id="layer1#5" xml:space="default" label="Ebene 1" groupmode="layer">
    <g transform="translate(-212.3277, 500.675)" id="g3457#1" xml:space="default">
      <path d="M289.8392 473.0048 C293.8371 474.7375 296.3802 478.4365 296.3802 482.5041 C296.3802 485.7729 294.7174 488.8574 291.8932 490.8482" id="path3248#1" xml:space="default" stroke="#000000" stroke-width="1.838624" stroke-linejoin="round" stroke-miterlimit="10" connector-curvature="0" style="fill:none;" />
      <g transform="matrix(1.222622, 0, 0, -1.228885, 57.82216, 1345.857)" id="g3250#1" xml:space="default">
        <path d="M188.04 711.72 L158.88 727.08" id="path3252#1" xml:space="default" stroke="#C0C0C0" stroke-linejoin="round" stroke-miterlimit="10" stroke-dasharray="2 0.75 " connector-curvature="0" style="fill:none;" />
      </g>
      <g transform="matrix(1.222622, 0, 0, -1.228885, 57.82216, 1345.857)" id="g3254#1" xml:space="default">
        <path d="M189.6 695.04 L160.44 679.8" id="path3256#1" xml:space="default" stroke="#C0C0C0" stroke-linejoin="round" stroke-miterlimit="10" stroke-dasharray="2 0.75 " connector-curvature="0" style="fill:none;" />
      </g>
    </g>
    <rect x="38.74929" y="952.3622" width="58.16988" height="60" id="rect4157#5" xml:space="default" fill-opacity="0" stroke-miterlimit="10" stroke-dasharray="8 3 " style="fill:#000000;" />
  </g>
  <g transform="translate(-19.37465, -962.3622) translate(329.369, 330)" id="layer1#6" xml:space="default" label="Ebene 1" groupmode="layer">
    <g transform="translate(-310.037, 503.8844)" id="g3464" xml:space="default">
      <g transform="matrix(1.477675, 0, 0, -1.466953, 9.165111, 1509.082)" id="g3258" xml:space="default">
        <path d="M248.76 699.36 L219.6 714.72" id="path3260" xml:space="default" stroke="#C0C0C0" stroke-linejoin="round" stroke-miterlimit="10" stroke-dasharray="2 0.75 " connector-curvature="0" style="fill:none;" />
      </g>
      <g transform="matrix(1.477675, 0, 0, -1.466953, 9.165111, 1509.082)" id="g3262" xml:space="default">
        <path d="M291.36 713.88 L262.2 698.64" id="path3264" xml:space="default" stroke="#C0C0C0" stroke-linejoin="round" stroke-miterlimit="10" stroke-dasharray="2 0.75 " connector-curvature="0" style="fill:none;" />
      </g>
      <path d="M374.4463 480.6598 C378.3178 483.6377 383.2532 485.266 388.3659 485.266 C393.5526 485.266 398.5619 483.579 402.463 480.5131" id="path3266" xml:space="default" stroke="#000000" stroke-width="2.208456" stroke-linejoin="round" stroke-miterlimit="10" connector-curvature="0" style="fill:none;" />
    </g>
    <rect x="19.37465" y="962.3622" width="116.2479" height="40" id="rect4157#6" xml:space="default" fill-opacity="0" stroke-miterlimit="10" stroke-dasharray="8 3 " style="fill:#000000;" />
  </g>
  <g transform="translate(-19.37465, -942.3622) translate(154.9972, 300)" id="layer1#7" xml:space="default" label="Ebene 1" groupmode="layer">
    <g transform="translate(-524.0714, 501.8906)" id="g3478" xml:space="default">
      <g transform="matrix(1.39711, 0, 0, -1.403326, -5.702975, 1468.896)" id="g3282" xml:space="default">
        <path d="M419.16 719.76 L448.32 704.52" id="path3284" xml:space="default" stroke="#C0C0C0" stroke-linejoin="round" stroke-miterlimit="10" stroke-dasharray="2 0.75 " connector-curvature="0" style="fill:none;" />
      </g>
      <g transform="matrix(1.25, 0, 0, -1.25, 55.92459, 1358.471)" id="g3286" xml:space="default">
        <path d="M405.72 712.44 L405.72 687" id="path3288" xml:space="default" stroke="#C0C0C0" stroke-linejoin="round" stroke-miterlimit="10" stroke-dasharray="2 0.75 " connector-curvature="0" style="fill:none;" />
      </g>
      <path d="M563.2496 468.8211 C563.1371 468.2211 563.0746 467.6086 563.0746 466.9961 C563.0746 461.4586 567.7996 456.9711 573.6371 456.9711 C575.8746 456.9711 578.0621 457.6461 579.8746 458.9086" id="path3290" xml:space="default" stroke="#000000" stroke-width="1.875" stroke-linejoin="round" stroke-miterlimit="10" connector-curvature="0" style="fill:none;" />
    </g>
    <rect x="19.37465" y="942.3622" width="77.49858" height="60" id="rect4157#7" xml:space="default" fill-opacity="0" stroke-miterlimit="10" stroke-dasharray="8 3 " style="fill:#000000;" />
  </g>
  <g transform="translate(-19.37465, -962.3622) translate(154.9972, 360)" id="layer1#8" xml:space="default" label="Ebene 1" groupmode="layer">
    <g transform="translate(-407.2984, 512.2701)" id="g3471" xml:space="default">
      <g transform="matrix(1.624425, 0, 0, -1.645508, -57.10945, 1638.22)" id="g3268" xml:space="default">
        <path d="M327.72 713.16 L298.56 697.92" id="path3270" xml:space="default" stroke="#C0C0C0" stroke-linejoin="round" stroke-miterlimit="10" stroke-dasharray="2 0.75 " connector-curvature="0" style="fill:none;" />
      </g>
      <g transform="matrix(1.65771, 0, 0, -1.657815, -73.26411, 1647.299)" id="g3272" xml:space="default">
        <path d="M370.32 698.64 L341.04 713.88" id="path3274" xml:space="default" stroke="#C0C0C0" stroke-linejoin="round" stroke-miterlimit="10" stroke-dasharray="2 0.75 " connector-curvature="0" style="fill:none;" />
      </g>
      <path d="M473.3871 466.5497 C476.6496 463.9872 480.7996 462.5872 485.0871 462.5872 C489.4496 462.5872 493.6621 464.0372 496.9371 466.6747" id="path3276" xml:space="default" stroke="#000000" stroke-width="1.875" stroke-linejoin="round" stroke-miterlimit="10" connector-curvature="0" style="fill:none;" />
    </g>
    <rect x="19.37465" y="962.3622" width="116.2479" height="40" id="rect4157#8" xml:space="default" fill-opacity="0" stroke-miterlimit="10" stroke-dasharray="8 3 " style="fill:#000000;" />
  </g>
  <g transform="translate(-38.74929, -932.3622) translate(464.9915, 320)" id="layer1#9" xml:space="default" label="Ebene 1" groupmode="layer">
    <g transform="translate(-615.1843, 496.3708)" id="g3587" xml:space="default">
      <g transform="matrix(1.25, 0, 0, -1.25, 573.1729, 1354.822)" id="g3539" xml:space="default">
        <path d="M97.32 719.76 L68.16 704.52" id="path3541" xml:space="default" stroke="#C0C0C0" stroke-linejoin="round" stroke-miterlimit="10" stroke-dasharray="2 0.75 " connector-curvature="0" style="fill:none;" />
      </g>
      <g transform="matrix(1.25, 0, 0, -1.25, 573.1729, 1354.822)" id="g3543" xml:space="default">
        <path d="M110.76 712.44 L110.76 687" id="path3545" xml:space="default" stroke="#C0C0C0" stroke-linejoin="round" stroke-miterlimit="10" stroke-dasharray="2 0.75 " connector-curvature="0" style="fill:none;" />
      </g>
      <path d="M711.4479 465.1719 C711.5604 464.5719 711.6229 463.9594 711.6229 463.3469 C711.6229 457.8094 706.8979 453.3219 701.0604 453.3219 C698.8229 453.3219 696.6341 453.9969 694.8229 455.2594" id="path3547" xml:space="default" stroke="#000000" stroke-width="1.875" stroke-linejoin="round" stroke-miterlimit="10" connector-curvature="0" style="fill:none;" />
    </g>
    <rect x="38.74929" y="932.3622" width="77.49858" height="60" id="rect4157#9" xml:space="default" fill-opacity="0" stroke-miterlimit="10" stroke-dasharray="8 3 " style="fill:#000000;" />
  </g>
  <g transform="translate(-19.37465, -942.3622) translate(77.49858, 180)" id="layer1#10" xml:space="default" label="Ebene 1" groupmode="layer">
    <g transform="translate(-132.1419, 428.9003)" id="g3450" xml:space="default">
      <g transform="matrix(1.098032, 0, 0, -1.088786, 79.12668, 1250.933)" id="g3292" xml:space="default">
        <path d="M117.84 667.44 L88.68 652.08" id="path3294" xml:space="default" stroke="#C0C0C0" stroke-linejoin="round" stroke-miterlimit="10" stroke-dasharray="2 0.75 " connector-curvature="0" style="fill:none;" />
      </g>
      <g transform="matrix(1.25, 0, 0, -1.25, 65.68706, 1355.987)" id="g3296" xml:space="default">
        <path d="M84 646.32 L84 620.88" id="path3298" xml:space="default" stroke="#C0C0C0" stroke-linejoin="round" stroke-miterlimit="10" stroke-dasharray="2 0.75 " connector-curvature="0" style="fill:none;" />
      </g>
      <path d="M180.1221 538.9372 C174.4871 540.6872 170.6871 545.6122 170.6871 551.1497 C170.6871 552.2372 170.8358 553.3247 171.1296 554.3872" id="path3340" xml:space="default" stroke="#000000" stroke-width="1.875" stroke-linejoin="round" stroke-miterlimit="10" connector-curvature="0" style="fill:none;" />
    </g>
    <rect x="19.37465" y="942.3622" width="58.12394" height="70" id="rect4157#10" xml:space="default" fill-opacity="0" stroke-miterlimit="10" stroke-dasharray="8 3 " style="fill:#000000;" />
  </g>
  <g transform="translate(-58.12394, -942.3622) translate(484.3661, 210)" id="layer1#11" xml:space="default" label="Ebene 1" groupmode="layer">
    <g transform="translate(-212.8527, 426.575)" id="g3506" xml:space="default">
      <g transform="matrix(1.03371, 0, 0, -1.071939, 106.0126, 1231.679)" id="g3300" xml:space="default">
        <path d="M160.44 667.44 L189.6 652.08" id="path3302" xml:space="default" stroke="#C0C0C0" stroke-linejoin="round" stroke-miterlimit="10" stroke-dasharray="2 0.75 " connector-curvature="0" style="fill:none;" />
      </g>
      <g transform="matrix(1.25, 0, 0, -1.25, 66.55903, 1350.901)" id="g3304" xml:space="default">
        <path d="M194.4 646.32 L194.4 620.88" id="path3306" xml:space="default" stroke="#C0C0C0" stroke-linejoin="round" stroke-miterlimit="10" stroke-dasharray="2 0.75 " connector-curvature="0" style="fill:none;" />
      </g>
      <path d="M300.4122 531.6428 C306.0497 533.3928 309.8497 538.3177 309.8497 543.8553 C309.8497 544.9428 309.6997 546.0303 309.4122 547.0928" id="path3308" xml:space="default" stroke="#000000" stroke-width="1.875" stroke-linejoin="round" stroke-miterlimit="10" connector-curvature="0" style="fill:none;" />
    </g>
    <rect x="58.12394" y="942.3622" width="58.12394" height="60.11766" id="rect4157#11" xml:space="default" fill-opacity="0" stroke-miterlimit="10" stroke-dasharray="8 3 " style="fill:#000000;" />
  </g>
  <g transform="translate(-58.22332, -962.5352) translate(38.74929, 280)" id="layer1#12" xml:space="default" label="Ebene 1" groupmode="layer">
    <g transform="translate(-306.5277, 425.2094)" id="g3499" xml:space="default">
      <g transform="matrix(1.37797, 0, 0, -1.338691, 48.00497, 1417.914)" id="g3310" xml:space="default">
        <path d="M231.48 642 L260.64 626.64" id="path3312" xml:space="default" stroke="#C0C0C0" stroke-linejoin="round" stroke-miterlimit="10" stroke-dasharray="2 0.75 " connector-curvature="0" style="fill:none;" />
      </g>
      <g transform="matrix(1.25, 0, 0, -1.187161, 81.38254, 1322.454)" id="g3314" xml:space="default">
        <path d="M273.24 660.84 L273.24 635.4" id="path3316" xml:space="default" stroke="#C0C0C0" stroke-linejoin="round" stroke-miterlimit="10" stroke-dasharray="2 0.75 " connector-curvature="0" style="fill:none;" />
      </g>
      <path d="M405.2325 578.1942 C407.1201 579.3566 409.345 579.9816 411.6325 579.9816 C417.87 579.9816 422.9325 575.4191 422.9325 569.8066 C422.9325 569.2441 422.8825 568.6816 422.7825 568.1317" id="path3318" xml:space="default" stroke="#000000" stroke-width="1.875" stroke-linejoin="round" stroke-miterlimit="10" connector-curvature="0" style="fill:none;" />
    </g>
    <rect x="58.22332" y="962.5352" width="77.39919" height="59.827" id="rect4157#12" xml:space="default" fill-opacity="0" stroke-miterlimit="10" stroke-dasharray="8 3 " style="fill:#000000;" />
  </g>
  <g transform="translate(-58.12394, -962.3622) translate(251.8704, 370)" id="layer1#13" xml:space="default" label="Ebene 1" groupmode="layer">
    <rect x="58.12394" y="962.3622" width="38.60396" height="29.97233" id="rect4180" xml:space="default" fill-opacity="0" stroke-miterlimit="10" stroke-dasharray="8 3 " style="fill:#000000;" />
    <g transform="translate(9.670121, 425.667)" id="g4871" xml:space="default">
      <path d="M69.19579 545.7454 C73.16579 547.2454 75.82079 551.2579 75.82079 555.7454 C75.82079 555.9954 75.812 556.2329 75.79704 556.4829" id="path4545" xml:space="default" stroke="#000000" stroke-width="1.25" stroke-linejoin="round" stroke-miterlimit="10" connector-curvature="0" style="fill:none;" />
      <g transform="matrix(1.25, 0, 0, -1.25, -48.82921, 1429.783)" id="g4559" xml:space="default">
        <path d="M93.48 702.36 L93.48 690.72" id="path4561" xml:space="default" stroke="#969696" stroke-linejoin="round" stroke-miterlimit="10" stroke-dasharray="2 0.75 " connector-curvature="0" style="fill:none;" />
      </g>
      <path d="M60.07079 547.8329 L75.82079 556.3829" id="path4547" xml:space="default" stroke="#000000" stroke-width="1.25" stroke-linejoin="round" stroke-miterlimit="10" connector-curvature="0" style="fill:none;" />
      <g transform="matrix(1.25, 0, 0, -1.25, -48.82921, 1429.783)" id="g4549" xml:space="default">
        <g clip-path="url(#clipPath4553)" id="g4551" xml:space="default">
          <path d="M87.192 705.78 C87.236 706.21 87.373 706.6 87.6 706.92 C88.568 708.28 91.091 708.4 94.31 707.2401" clip-path="url(#clipPath4553)" id="path4557" xml:space="default" stroke="#000000" stroke-linejoin="round" stroke-miterlimit="10" connector-curvature="0" style="fill:none;" />
        </g>
      </g>
    </g>
  </g>
  <g transform="translate(-58.12394, -962.3622) translate(116.2479, 380)" id="layer1#14" xml:space="default" label="Ebene 1" groupmode="layer">
    <g transform="translate(-394.8205, 351.6167)" id="g4938" xml:space="default">
      <g transform="matrix(1.802972, 0, 0, -1.776137, -276.287, 1759.47)" id="g4665" xml:space="default">
        <path d="M415.2 641.28 L424.68 636.1201" id="path4667" xml:space="default" stroke="#969696" stroke-linejoin="round" stroke-miterlimit="10" stroke-dasharray="2 0.75 " connector-curvature="0" style="fill:none;" />
      </g>
      <g transform="matrix(1.193967, 0, 0, -1.190576, -23.86335, 1384.112)" id="g4643" xml:space="default">
        <g clip-path="url(#clipPath4647)" id="g4645" xml:space="default">
          <path d="M410.27 642.53 C409.9 639.3701 411.92 635.8701 415.32 633.82 C415.5 633.71 415.69 633.6 415.88 633.5" clip-path="url(#clipPath4647)" id="path4651" xml:space="default" stroke="#000000" stroke-linejoin="round" stroke-miterlimit="10" connector-curvature="0" style="fill:none;" />
        </g>
      </g>
      <g transform="matrix(1.25, 0, 0, -1.25, -46.20422, 1421.834)" id="g4653" xml:space="default">
        <g clip-path="url(#clipPath4657)" id="g4655" xml:space="default">
          <path d="M414.9 646.92 C414.49 647.1 414.07 647.17 413.66 647.14 C411.93 647.0099 410.45 645.0499 409.72 641.91" clip-path="url(#clipPath4657)" id="path4661" xml:space="default" stroke="#000000" stroke-linejoin="round" stroke-miterlimit="10" connector-curvature="0" style="fill:none;" />
        </g>
      </g>
      <path d="M472.2792 629.3837 L472.2792 612.4171" id="path4663" xml:space="default" stroke="#000000" stroke-width="1.273351" stroke-linejoin="round" stroke-miterlimit="10" connector-curvature="0" style="fill:none;" />
    </g>
    <rect x="58.12394" y="962.3622" width="38.74929" height="20" id="rect4197" xml:space="default" fill-opacity="0" stroke-miterlimit="10" stroke-dasharray="8 3 " style="fill:#000000;" />
  </g>
  <g transform="translate(-58.12394, -962.3622) translate(290.6197, 390)" id="layer1#15" xml:space="default" label="Ebene 1" groupmode="layer">
    <g transform="translate(-479.1533, 354.9482)" id="g4929" xml:space="default">
      <g transform="matrix(1.863029, 0, 0, -1.736885, 380.7202, 1737.629)" id="g4782" xml:space="default">
        <path d="M94.2 644.88 L84.72 639.72" id="path4784" xml:space="default" stroke="#969696" stroke-linejoin="round" stroke-miterlimit="10" stroke-dasharray="2 0.75 " connector-curvature="0" style="fill:none;" />
      </g>
      <g transform="matrix(1.234756, 0, 0, -1.217102, 440.4255, 1402.157)" id="g4768" xml:space="default">
        <g clip-path="url(#clipPath4772)" id="g4770" xml:space="default">
          <path d="M99.25 646.13 C99.619 642.97 97.595 639.47 94.199 637.42 C94.015 637.31 93.828 637.2 93.638 637.1" clip-path="url(#clipPath4772)" id="path4776" xml:space="default" stroke="#000000" stroke-linejoin="round" stroke-miterlimit="10" connector-curvature="0" style="fill:none;" />
        </g>
      </g>
      <path d="M556.6665 610.0577 C557.1815 609.8327 557.699 609.7452 558.2078 609.7827 C560.3777 609.9451 562.2315 612.3951 563.139 616.3201" id="path4778" xml:space="default" stroke="#000000" stroke-width="1.25" stroke-linejoin="round" stroke-miterlimit="10" connector-curvature="0" style="fill:none;" />
      <path d="M556.3932 626.4632 L556.3932 609.3939" id="path4780" xml:space="default" stroke="#000000" stroke-width="1.277202" stroke-linejoin="round" stroke-miterlimit="10" connector-curvature="0" style="fill:none;" />
    </g>
    <rect x="58.12394" y="962.3622" width="38.74929" height="20" id="rect4197#1" xml:space="default" fill-opacity="0" stroke-miterlimit="10" stroke-dasharray="8 3 " style="fill:#000000;" />
  </g>
  <g transform="translate(-58.12394, -962.3622) translate(154.9972, 420)" id="layer1#16" xml:space="default" label="Ebene 1" groupmode="layer">
    <g transform="translate(-290.0299, 424.3935)" id="g4898" xml:space="default">
      <g transform="matrix(1.25, 0, 0, -1.25, -48.82921, 1422.953)" id="g4621" xml:space="default">
        <path d="M333.24 695.76 L333.24 707.4" id="path4623" xml:space="default" stroke="#969696" stroke-linejoin="round" stroke-miterlimit="10" stroke-dasharray="2 0.75 " connector-curvature="0" style="fill:none;" />
      </g>
      <path d="M368.8958 559.34 C372.8708 557.865 375.5208 553.915 375.5208 549.4775 C375.5208 549.24 375.5083 548.99 375.4958 548.7525" id="path4607" xml:space="default" stroke="#000000" stroke-width="1.25" stroke-linejoin="round" stroke-miterlimit="10" connector-curvature="0" style="fill:none;" />
      <path d="M359.7708 557.2775 L375.5208 548.8525" id="path4609" xml:space="default" stroke="#000000" stroke-width="1.25" stroke-linejoin="round" stroke-miterlimit="10" connector-curvature="0" style="fill:none;" />
      <g transform="matrix(1.25, 0, 0, -1.25, -48.82921, 1422.953)" id="g4611" xml:space="default">
        <g clip-path="url(#clipPath4615)" id="g4613" xml:space="default">
          <path d="M326.97 692.28 C327.01 691.85 327.15 691.47 327.37 691.15 C328.33 689.81 330.84 689.7 334.05 690.88" clip-path="url(#clipPath4615)" id="path4619" xml:space="default" stroke="#000000" stroke-linejoin="round" stroke-miterlimit="10" connector-curvature="0" style="fill:none;" />
        </g>
      </g>
    </g>
    <rect x="58.12394" y="962.3622" width="38.74929" height="29.97233" id="rect4183" xml:space="default" fill-opacity="0" stroke-miterlimit="10" stroke-dasharray="8 3 " style="fill:#000000;" />
  </g>
  <g transform="translate(-58.12394, -962.0715) translate(213.1211, 410)" id="layer1#19" xml:space="default" label="Ebene 1" groupmode="layer">
    <rect x="58.12394" y="962.0715" width="38.74929" height="30.55364" id="rect4184#2" xml:space="default" fill-opacity="0" stroke-miterlimit="10" stroke-dasharray="8 3 " style="fill:#000000;" />
    <g transform="translate(-192.3096, 414.0307)" id="g4889#2" xml:space="default">
      <path d="M268.663 569.541 C264.6505 568.066 261.9755 564.116 261.9755 559.6785 C261.9755 559.441 261.988 559.191 262.0005 558.9536" id="path4625#2" xml:space="default" stroke="#000000" stroke-width="1.25" stroke-linejoin="round" stroke-miterlimit="10" connector-curvature="0" style="fill:none;" />
      <g transform="matrix(1.25, 0, 0, -1.25, -48.97454, 1432.254)" id="g4639#2" xml:space="default">
        <path d="M255.12 695.04 L255.12 706.68" id="path4641#2" xml:space="default" stroke="#969696" stroke-linejoin="round" stroke-miterlimit="10" stroke-dasharray="2 0.75 " connector-curvature="0" style="fill:none;" />
      </g>
      <path d="M277.8755 567.4785 L261.9755 559.0535" id="path4627#2" xml:space="default" stroke="#000000" stroke-width="1.25" stroke-linejoin="round" stroke-miterlimit="10" connector-curvature="0" style="fill:none;" />
      <g transform="matrix(1.25, 0, 0, -1.25, -48.97454, 1432.254)" id="g4629#2" xml:space="default">
        <g clip-path="url(#clipPath4633)" id="g4631#2" xml:space="default">
          <path d="M261.37 691.53 C261.33 691.09 261.2 690.71 260.98 690.4 C260.02 689.05 257.5 688.96 254.26 690.15" clip-path="url(#clipPath4633)" id="path4637#2" xml:space="default" stroke="#000000" stroke-linejoin="round" stroke-miterlimit="10" connector-curvature="0" style="fill:none;" />
        </g>
      </g>
    </g>
  </g>
  <g transform="translate(-58.12394, -962.3622) translate(271.245, 200)" id="layer1#17" xml:space="default" label="Ebene 1" groupmode="layer">
    <g transform="translate(-481.9811, 419.5639)" id="g4918" xml:space="default">
      <g transform="matrix(1.798853, 0, 0, -1.740426, 385.4525, 1770.078)" id="g4764" xml:space="default">
        <path d="M96.6 699.36 L87.12 704.52" id="path4766" xml:space="default" stroke="#969696" stroke-linejoin="round" stroke-miterlimit="10" stroke-dasharray="2 0.75 " connector-curvature="0" style="fill:none;" />
      </g>
      <g transform="matrix(1.181858, 0, 0, -1.241071, 445.5408, 1421.094)" id="g4742" xml:space="default">
        <g clip-path="url(#clipPath4746)" id="g4744" xml:space="default">
          <path d="M101.54 698.14 C101.92 701.3 99.937 704.77 96.584 706.79 C96.402 706.9 96.217 707.01 96.029 707.11" clip-path="url(#clipPath4746)" id="path4750" xml:space="default" stroke="#000000" stroke-linejoin="round" stroke-miterlimit="10" connector-curvature="0" style="fill:none;" />
        </g>
      </g>
      <g transform="matrix(1.25, 0, 0, -1.25, 438.0795, 1427.421)" id="g4752" xml:space="default">
        <g clip-path="url(#clipPath4756)" id="g4754" xml:space="default">
          <path d="M96.983 693.72 C97.39 693.55 97.798 693.47 98.201 693.5 C99.914 693.63 101.38 695.59 102.09 698.73" clip-path="url(#clipPath4756)" id="path4760" xml:space="default" stroke="#000000" stroke-linejoin="round" stroke-miterlimit="10" connector-curvature="0" style="fill:none;" />
        </g>
      </g>
      <path d="M559.3433 543.9682 L559.3433 560.7292" id="path4762" xml:space="default" stroke="#000000" stroke-width="1.265615" stroke-linejoin="round" stroke-miterlimit="10" connector-curvature="0" style="fill:none;" />
    </g>
    <rect x="58.12394" y="962.3622" width="38.74929" height="20" id="rect4193" xml:space="default" fill-opacity="0" stroke-miterlimit="10" stroke-dasharray="8 3 " style="fill:#000000;" />
  </g>
  <g transform="translate(-58.12394, -962.3622) translate(174.3718, 170)" id="layer1#18" xml:space="default" label="Ebene 1" groupmode="layer">
    <g transform="translate(-392.8643, 427.4899)" id="g4907" xml:space="default">
      <g transform="matrix(1.733339, 0, 0, -1.6804, -246.6161, 1721.599)" id="g4585" xml:space="default">
        <path d="M413.64 700.08 L423.12 705.24" id="path4587" xml:space="default" stroke="#969696" stroke-linejoin="round" stroke-miterlimit="10" stroke-dasharray="2 0.75 " connector-curvature="0" style="fill:none;" />
      </g>
      <g transform="matrix(1.146949, 0, 0, -1.253489, -4.718084, 1422.937)" id="g4563" xml:space="default">
        <g clip-path="url(#clipPath4567)" id="g4565" xml:space="default">
          <path d="M408.7 698.86 C408.32 702.02 410.3 705.49 413.66 707.51 C413.84 707.62 414.02 707.73 414.21 707.83" clip-path="url(#clipPath4567)" id="path4571" xml:space="default" stroke="#000000" stroke-linejoin="round" stroke-miterlimit="10" connector-curvature="0" style="fill:none;" />
        </g>
      </g>
      <g transform="matrix(1.25, 0, 0, -1.25, -46.17803, 1420.482)" id="g4573" xml:space="default">
        <g clip-path="url(#clipPath4577)" id="g4575" xml:space="default">
          <path d="M413.26 694.44 C412.85 694.27 412.44 694.19 412.04 694.22 C410.33 694.35 408.86 696.3101 408.15 699.45" clip-path="url(#clipPath4577)" id="path4581" xml:space="default" stroke="#000000" stroke-linejoin="round" stroke-miterlimit="10" connector-curvature="0" style="fill:none;" />
        </g>
      </g>
      <path d="M470.2554 536.2319 L470.2554 552.5818" id="path4583" xml:space="default" stroke="#000000" stroke-width="1.25" stroke-linejoin="round" stroke-miterlimit="10" connector-curvature="0" style="fill:none;" />
    </g>
    <rect x="58.12394" y="962.3622" width="38.74929" height="20" id="rect4189" xml:space="default" fill-opacity="0" stroke-miterlimit="10" stroke-dasharray="8 3 " style="fill:#000000;" />
  </g>
  <g transform="translate(-58.26926, -942.5075) translate(96.87323, 310)" id="layer1#20" xml:space="default" label="Ebene 1" groupmode="layer">
    <rect x="58.26926" y="942.5075" width="57.97861" height="39.97233" id="rect4196" xml:space="default" fill-opacity="0" stroke-miterlimit="10" stroke-dasharray="8 3 " style="fill:#000000;" />
    <g transform="matrix(1.304523, 0, 0, 1.293874, -184.6362, 240.9231)" id="g5316" xml:space="default">
      <g transform="matrix(1.199598, 0, 0, -1.199641, 0.2960047, 1409.791)" id="g5179" xml:space="default">
        <path d="M191.28 716.16 L176.28 708.12" id="path5181" xml:space="default" stroke="#808080" stroke-linejoin="round" stroke-miterlimit="10" stroke-dasharray="2 0.75 " connector-curvature="0" style="fill:none;" />
      </g>
      <g transform="matrix(1.207236, 0, 0, -1.186293, -1.261079, 1400.429)" id="g5183" xml:space="default">
        <path d="M170.76 705.96 L155.76 697.92" id="path5185" xml:space="default" stroke="#808080" stroke-linejoin="round" stroke-miterlimit="10" stroke-dasharray="2 0.75 " connector-curvature="0" style="fill:none;" />
      </g>
      <path d="M209.8231 553.0785 L209.8231 569.416" id="path5207" xml:space="default" stroke="#000000" stroke-width="1.25" stroke-linejoin="round" stroke-miterlimit="10" connector-curvature="0" style="fill:none;" />
      <path d="M206.8231 554.891 L206.8231 571.2285" id="path5209" xml:space="default" stroke="#000000" stroke-width="1.25" stroke-linejoin="round" stroke-miterlimit="10" connector-curvature="0" style="fill:none;" />
    </g>
  </g>
</svg>