<?xml version="1.0" encoding="utf-8" standalone="no"?>
<svg x="0" y="0" width="100%" height="100%" overflow="inherit" preserveAspectRatio="xMidYMid" font-size="0" xml:space="default" xmlns="http://www.w3.org/2000/svg" xmlns:xlink="http://www.w3.org/1999/xlink" xmlns:xml="http://www.w3.org/XML/1998/namespace" version="1.1">
  <title id="title4138" xml:space="default">Vorlage</title>
  <defs id="defs4" xml:space="default">
    <marker refX="0" refY="0" orient="auto" overflow="visible" markerWidth="3" markerHeight="3" id="marker5863" xml:space="default" isstock="true" stockid="Arrow1Mend">
      <path d="M0 0 L5 -5 L-12.5 0 L5 5 L0 0 z" transform="matrix(-0.4, 0, 0, -0.4, -4, 0)" id="path5865" xml:space="default" stroke="#000000" fill-rule="evenOdd" stroke-width="1pt" connector-curvature="0" style="fill:#000000;" />
    </marker>
    <marker refX="0" refY="0" orient="auto" overflow="visible" markerWidth="3" markerHeight="3" id="marker5757" xml:space="default" isstock="true" stockid="Arrow1Mend">
      <path d="M0 0 L5 -5 L-12.5 0 L5 5 L0 0 z" transform="matrix(-0.4, 0, 0, -0.4, -4, 0)" id="path5759" xml:space="default" stroke="#000000" fill-rule="evenOdd" stroke-width="1pt" connector-curvature="0" style="fill:#000000;" />
    </marker>
    <marker refX="0" refY="0" orient="auto" overflow="visible" markerWidth="3" markerHeight="3" id="marker5645" xml:space="default" isstock="true" stockid="Arrow1Mend">
      <path d="M0 0 L5 -5 L-12.5 0 L5 5 L0 0 z" transform="matrix(-0.4, 0, 0, -0.4, -4, 0)" id="path5647" xml:space="default" stroke="#000000" fill-rule="evenOdd" stroke-width="1pt" connector-curvature="0" style="fill:#000000;" />
    </marker>
    <marker refX="0" refY="0" orient="auto" overflow="visible" markerWidth="3" markerHeight="3" id="marker5296" xml:space="default" isstock="true" stockid="Arrow1Mend">
      <path d="M0 0 L5 -5 L-12.5 0 L5 5 L0 0 z" transform="matrix(-0.4, 0, 0, -0.4, -4, 0)" id="path5298" xml:space="default" stroke="#000000" fill-rule="evenOdd" stroke-width="1pt" connector-curvature="0" style="fill:#000000;" />
    </marker>
    <marker refX="0" refY="0" orient="auto" overflow="visible" markerWidth="3" markerHeight="3" id="Arrow1Mstart" xml:space="default" stockid="Arrow1Mstart" isstock="true">
      <path d="M0 0 L5 -5 L-12.5 0 L5 5 L0 0 z" transform="scale(0.4) translate(10, 0)" id="path4166" xml:space="default" stroke="#000000" fill-rule="evenOdd" stroke-width="1pt" style="fill:#000000;" />
    </marker>
    <marker refX="0" refY="0" orient="auto" overflow="visible" markerWidth="3" markerHeight="3" id="Arrow1Mend" xml:space="default" stockid="Arrow1Mend" isstock="true">
      <path d="M0 0 L5 -5 L-12.5 0 L5 5 L0 0 z" transform="scale(0.4) rotate(180, 0, 0) translate(10, 0)" id="path4169" xml:space="default" stroke="#000000" fill-rule="evenOdd" stroke-width="1pt" style="fill:#000000;" />
    </marker>
    <marker refX="0" refY="0" orient="auto" overflow="visible" markerWidth="3" markerHeight="3" id="TriangleInL" xml:space="default" stockid="TriangleInL" isstock="true">
      <path d="M5.77 0 L-2.88 5 L-2.88 -5 L5.77 0 z" transform="scale(-0.8)" id="path4293" xml:space="default" stroke="#000000" fill-rule="evenOdd" stroke-width="1pt" style="fill:#000000;" />
    </marker>
    <marker refX="0" refY="0" orient="auto" overflow="visible" markerWidth="3" markerHeight="3" id="Arrow2Mstart" xml:space="default" stockid="Arrow2Mstart" isstock="true">
      <path d="M8.718588 4.033735 L-2.207289 0.01601326 L8.718589 -4.001708 C6.97309 -1.629647 6.983148 1.615744 8.718588 4.033735 z" transform="scale(0.6) translate(0, 0)" id="path4184" xml:space="default" stroke="#000000" fill-rule="evenOdd" stroke-width="0.625" stroke-linejoin="round" style="fill:#000000;" />
    </marker>
    <linearGradient x1="0%" y1="0%" x2="100%" y2="0%" gradientUnits="objectBoundingBox" id="linearGradient6303" xml:space="default" paint="solid">
      <stop offset="0%" stop-color="#000000" stop-opacity="1" id="stop6305" xml:space="default" />
    </linearGradient>
    <clipPath clipPathUnits="userSpaceOnUse" id="clipPath254" xml:space="default">
      <path d="M540.96 769.8 L540.96 210.96 L54.00003 210.96 L54.00003 769.8 L540.96 769.8 z" clip-rule="evenOdd" id="path256" xml:space="default" connector-curvature="0" />
    </clipPath>
    <marker refX="0" refY="0" orient="auto" overflow="visible" markerWidth="3" markerHeight="3" id="Arrow1Mend-2" xml:space="default" stockid="Arrow1Mend" isstock="true">
      <path d="M0 0 L5 -5 L-12.5 0 L5 5 L0 0 z" transform="matrix(-0.4, 0, 0, -0.4, -4, 0)" id="path4169-2" xml:space="default" stroke="#000000" fill-rule="evenOdd" stroke-width="1pt" connector-curvature="0" style="fill:#000000;" />
    </marker>
    <marker refX="0" refY="0" orient="auto" overflow="visible" markerWidth="3" markerHeight="3" id="Arrow1Mend-2-9" xml:space="default" stockid="Arrow1Mend" isstock="true" collect="always">
      <path d="M0 0 L5 -5 L-12.5 0 L5 5 L0 0 z" transform="matrix(-0.4, 0, 0, -0.4, -4, 0)" id="path4169-2-9" xml:space="default" stroke="#000000" fill-rule="evenOdd" stroke-width="1pt" connector-curvature="0" style="fill:#000000;" />
    </marker>
    <marker refX="0" refY="0" orient="auto" overflow="visible" markerWidth="3" markerHeight="3" id="Arrow1Mend-26" xml:space="default" stockid="Arrow1Mend" isstock="true" collect="always">
      <path d="M0 0 L5 -5 L-12.5 0 L5 5 L0 0 z" transform="matrix(-0.4, 0, 0, -0.4, -4, 0)" id="path4169-3" xml:space="default" stroke="#000000" fill-rule="evenOdd" stroke-width="1pt" connector-curvature="0" style="fill:#000000;" />
    </marker>
    <marker refX="0" refY="0" orient="auto" overflow="visible" markerWidth="3" markerHeight="3" id="Arrow1Mend-2-8" xml:space="default" stockid="Arrow1Mend" isstock="true">
      <path d="M0 0 L5 -5 L-12.5 0 L5 5 L0 0 z" transform="matrix(-0.4, 0, 0, -0.4, -4, 0)" id="path4169-2-91" xml:space="default" stroke="#000000" fill-rule="evenOdd" stroke-width="1pt" connector-curvature="0" style="fill:#000000;" />
    </marker>
    <marker refX="0" refY="0" orient="auto" overflow="visible" markerWidth="3" markerHeight="3" id="Arrow1Mend-0" xml:space="default" stockid="Arrow1Mend" isstock="true">
      <path d="M0 0 L5 -5 L-12.5 0 L5 5 L0 0 z" transform="matrix(-0.4, 0, 0, -0.4, -4, 0)" id="path4169-8" xml:space="default" stroke="#000000" fill-rule="evenOdd" stroke-width="1pt" connector-curvature="0" style="fill:#000000;" />
    </marker>
    <marker refX="0" refY="0" orient="auto" overflow="visible" markerWidth="3" markerHeight="3" id="Arrow1Mend-2-1" xml:space="default" stockid="Arrow1Mend" isstock="true">
      <path d="M0 0 L5 -5 L-12.5 0 L5 5 L0 0 z" transform="matrix(-0.4, 0, 0, -0.4, -4, 0)" id="path4169-2-8" xml:space="default" stroke="#000000" fill-rule="evenOdd" stroke-width="1pt" connector-curvature="0" style="fill:#000000;" />
    </marker>
    <marker refX="0" refY="0" orient="auto" overflow="visible" markerWidth="3" markerHeight="3" id="Arrow1Mend-8" xml:space="default" stockid="Arrow1Mend" isstock="true">
      <path d="M0 0 L5 -5 L-12.5 0 L5 5 L0 0 z" transform="matrix(-0.4, 0, 0, -0.4, -4, 0)" id="path4169-87" xml:space="default" stroke="#000000" fill-rule="evenOdd" stroke-width="1pt" connector-curvature="0" style="fill:#000000;" />
    </marker>
    <marker refX="0" refY="0" orient="auto" overflow="visible" markerWidth="3" markerHeight="3" id="Arrow1Mend-2-1-5" xml:space="default" stockid="Arrow1Mend" isstock="true">
      <path d="M0 0 L5 -5 L-12.5 0 L5 5 L0 0 z" transform="matrix(-0.4, 0, 0, -0.4, -4, 0)" id="path4169-2-8-7" xml:space="default" stroke="#000000" fill-rule="evenOdd" stroke-width="1pt" connector-curvature="0" style="fill:#000000;" />
    </marker>
    <marker refX="0" refY="0" orient="auto" overflow="visible" markerWidth="3" markerHeight="3" id="Arrow1Mend-2-8-3" xml:space="default" stockid="Arrow1Mend" isstock="true">
      <path d="M0 0 L5 -5 L-12.5 0 L5 5 L0 0 z" transform="matrix(-0.4, 0, 0, -0.4, -4, 0)" id="path4169-2-91-2" xml:space="default" stroke="#000000" fill-rule="evenOdd" stroke-width="1pt" connector-curvature="0" style="fill:#000000;" />
    </marker>
    <marker refX="0" refY="0" orient="auto" overflow="visible" markerWidth="3" markerHeight="3" id="Arrow1Mend-2-1-7" xml:space="default" stockid="Arrow1Mend" isstock="true">
      <path d="M0 0 L5 -5 L-12.5 0 L5 5 L0 0 z" transform="matrix(-0.4, 0, 0, -0.4, -4, 0)" id="path4169-2-8-6" xml:space="default" stroke="#000000" fill-rule="evenOdd" stroke-width="1pt" connector-curvature="0" style="fill:#000000;" />
    </marker>
    <marker refX="0" refY="0" orient="auto" overflow="visible" markerWidth="3" markerHeight="3" id="Arrow1Mend-2-8-7" xml:space="default" stockid="Arrow1Mend" isstock="true">
      <path d="M0 0 L5 -5 L-12.5 0 L5 5 L0 0 z" transform="matrix(-0.4, 0, 0, -0.4, -4, 0)" id="path4169-2-91-24" xml:space="default" stroke="#000000" fill-rule="evenOdd" stroke-width="1pt" connector-curvature="0" style="fill:#000000;" />
    </marker>
    <marker refX="0" refY="0" orient="auto" overflow="visible" markerWidth="3" markerHeight="3" id="Arrow1Mend-2-1-6" xml:space="default" stockid="Arrow1Mend" isstock="true">
      <path d="M0 0 L5 -5 L-12.5 0 L5 5 L0 0 z" transform="matrix(-0.4, 0, 0, -0.4, -4, 0)" id="path4169-2-8-2" xml:space="default" stroke="#000000" fill-rule="evenOdd" stroke-width="1pt" connector-curvature="0" style="fill:#000000;" />
    </marker>
    <marker refX="0" refY="0" orient="auto" overflow="visible" markerWidth="3" markerHeight="3" id="Arrow1Mend-2-8-77" xml:space="default" stockid="Arrow1Mend" isstock="true">
      <path d="M0 0 L5 -5 L-12.5 0 L5 5 L0 0 z" transform="matrix(-0.4, 0, 0, -0.4, -4, 0)" id="path4169-2-91-5" xml:space="default" stroke="#000000" fill-rule="evenOdd" stroke-width="1pt" connector-curvature="0" style="fill:#000000;" />
    </marker>
    <marker refX="0" refY="0" orient="auto" overflow="visible" markerWidth="3" markerHeight="3" id="Arrow1Mend-2-1-54" xml:space="default" stockid="Arrow1Mend" isstock="true">
      <path d="M0 0 L5 -5 L-12.5 0 L5 5 L0 0 z" transform="matrix(-0.4, 0, 0, -0.4, -4, 0)" id="path4169-2-8-5" xml:space="default" stroke="#000000" fill-rule="evenOdd" stroke-width="1pt" connector-curvature="0" style="fill:#000000;" />
    </marker>
    <marker refX="0" refY="0" orient="auto" overflow="visible" markerWidth="3" markerHeight="3" id="Arrow1Mend-2-8-0" xml:space="default" stockid="Arrow1Mend" isstock="true">
      <path d="M0 0 L5 -5 L-12.5 0 L5 5 L0 0 z" transform="matrix(-0.4, 0, 0, -0.4, -4, 0)" id="path4169-2-91-8" xml:space="default" stroke="#000000" fill-rule="evenOdd" stroke-width="1pt" connector-curvature="0" style="fill:#000000;" />
    </marker>
    <marker refX="0" refY="0" orient="auto" overflow="visible" markerWidth="3" markerHeight="3" id="Arrow1Mend-2-1-54-5" xml:space="default" stockid="Arrow1Mend" isstock="true">
      <path d="M0 0 L5 -5 L-12.5 0 L5 5 L0 0 z" transform="matrix(-0.4, 0, 0, -0.4, -4, 0)" id="path4169-2-8-5-3" xml:space="default" stroke="#000000" fill-rule="evenOdd" stroke-width="1pt" connector-curvature="0" style="fill:#000000;" />
    </marker>
    <marker refX="0" refY="0" orient="auto" overflow="visible" markerWidth="3" markerHeight="3" id="Arrow1Mend-2-8-0-2" xml:space="default" stockid="Arrow1Mend" isstock="true">
      <path d="M0 0 L5 -5 L-12.5 0 L5 5 L0 0 z" transform="matrix(-0.4, 0, 0, -0.4, -4, 0)" id="path4169-2-91-8-6" xml:space="default" stroke="#000000" fill-rule="evenOdd" stroke-width="1pt" connector-curvature="0" style="fill:#000000;" />
    </marker>
    <marker refX="0" refY="0" orient="auto" overflow="visible" markerWidth="3" markerHeight="3" id="Arrow1Mend-2-1-54-56" xml:space="default" stockid="Arrow1Mend" isstock="true">
      <path d="M0 0 L5 -5 L-12.5 0 L5 5 L0 0 z" transform="matrix(-0.4, 0, 0, -0.4, -4, 0)" id="path4169-2-8-5-6" xml:space="default" stroke="#000000" fill-rule="evenOdd" stroke-width="1pt" connector-curvature="0" style="fill:#000000;" />
    </marker>
    <marker refX="0" refY="0" orient="auto" overflow="visible" markerWidth="3" markerHeight="3" id="Arrow1Mend-2-8-0-8" xml:space="default" stockid="Arrow1Mend" isstock="true">
      <path d="M0 0 L5 -5 L-12.5 0 L5 5 L0 0 z" transform="matrix(-0.4, 0, 0, -0.4, -4, 0)" id="path4169-2-91-8-2" xml:space="default" stroke="#000000" fill-rule="evenOdd" stroke-width="1pt" connector-curvature="0" style="fill:#000000;" />
    </marker>
    <marker refX="0" refY="0" orient="auto" overflow="visible" markerWidth="3" markerHeight="3" id="Arrow1Mend-2-1-54-2" xml:space="default" stockid="Arrow1Mend" isstock="true">
      <path d="M0 0 L5 -5 L-12.5 0 L5 5 L0 0 z" transform="matrix(-0.4, 0, 0, -0.4, -4, 0)" id="path4169-2-8-5-4" xml:space="default" stroke="#000000" fill-rule="evenOdd" stroke-width="1pt" connector-curvature="0" style="fill:#000000;" />
    </marker>
    <marker refX="0" refY="0" orient="auto" overflow="visible" markerWidth="3" markerHeight="3" id="Arrow1Mend-2-8-0-4" xml:space="default" stockid="Arrow1Mend" isstock="true">
      <path d="M0 0 L5 -5 L-12.5 0 L5 5 L0 0 z" transform="matrix(-0.4, 0, 0, -0.4, -4, 0)" id="path4169-2-91-8-0" xml:space="default" stroke="#000000" fill-rule="evenOdd" stroke-width="1pt" connector-curvature="0" style="fill:#000000;" />
    </marker>
  </defs>
  <namedview id="base" xml:space="default" pagecolor="#ffffff" bordercolor="#666666" borderopacity="1.0" pageopacity="0.0" pageshadow="2" zoom="2" cx="432.3341" cy="910.67157" document-units="px" current-layer="layer1" showgrid="true" objecttolerance="10" gridtolerance="10" window-width="1536" window-height="801" window-x="-8" window-y="-8" window-maximized="1" object-nodes="true" snap-smooth-nodes="true" snap-midpoints="false" snap-intersection-paths="false" object-paths="false" snap-nodes="true">
    <grid id="grid4136" xml:space="default" type="axonomgrid" units="px" empspacing="5" spacingy="20.000001" />
  </namedview>
  <metadata id="metadata7" xml:space="default"></metadata>
  <g transform="matrix(1, 0, 0, 1, -51.96152, -102.3622)" id="g3451" xml:space="default">
    <path d="M69.28204 152.3622 C103.923 132.3622 103.923 132.3622 103.923 132.3622" id="path4139-7" xml:space="default" stroke="#000000" fill-rule="evenOdd" stroke-width="2" connector-curvature="0" style="fill:none;" />
    <path d="M69.28204 192.3622 L69.28204 156.9584" marker-end="url(#Arrow1Mend-26)" id="path4139-8-1" xml:space="default" stroke="#000000" fill-rule="evenOdd" stroke-width="2" nodetypes="cc" connector-curvature="0" style="fill:none;" />
    <path d="M69.28204 112.3622 L69.28204 146.2147" marker-end="url(#marker5645)" id="path4139-8-6-0" xml:space="default" stroke="#000000" fill-rule="evenOdd" stroke-width="2" nodetypes="cc" connector-curvature="0" style="fill:none;" />
    <rect x="51.96152" y="102.3622" width="51.96152" height="90" id="rect3449" xml:space="default" fill-opacity="0" stroke-width="0.1" opacity="0" style="fill:none;" />
  </g>
</svg>